<svg id="Layer_1" data-name="Layer 1" xmlns="http://www.w3.org/2000/svg" viewBox="0 0 512 512"><title>laptop-notebook-flat</title><path d="M0,256C0,114.61,114.61,0,256,0S512,114.63,512,256,397.38,512,256,512,0,397.39,0,256Z" fill="#0086cd"/><path d="M369.6,320.4a8.6,8.6,0,0,0,3.26-6.92V160c0-4.55-3.17-8.22-7.09-8.22H143.38c-3.92,0-7.09,3.68-7.09,8.22V313.47a8.6,8.6,0,0,0,3.26,6.92l-13.27,13v26.9H385.71v-26.9ZM256.84,304.57c4.27,0,4.27,6.86,0,6.86S252.56,304.57,256.84,304.57ZM152.49,175.71h203v119.7h-203Z" fill="#fff"/></svg>